<mxfile host="Electron" modified="2024-06-10T07:12:39.594Z" agent="Mozilla/5.0 (Windows NT 10.0; Win64; x64) AppleWebKit/537.36 (KHTML, like Gecko) draw.io/22.1.2 Chrome/114.0.5735.289 Electron/25.9.4 Safari/537.36" etag="lSi1w3RFLsxltW1ts59r" version="22.1.2" type="device">
  <diagram name="第 1 页" id="Ou-Er9LZuVxys_vOmpF0">
    <mxGraphModel dx="940" dy="702" grid="1" gridSize="10" guides="1" tooltips="1" connect="1" arrows="1" fold="1" page="1" pageScale="1" pageWidth="827" pageHeight="1169" math="0" shadow="0">
      <root>
        <mxCell id="0" />
        <mxCell id="1" parent="0" />
        <mxCell id="FabTF3gNKdevGVVlGi9p-2" value="&lt;font style=&quot;font-size: 40px;&quot;&gt;1&lt;/font&gt;" style="ellipse;whiteSpace=wrap;html=1;aspect=fixed;" vertex="1" parent="1">
          <mxGeometry x="200" y="230" width="70" height="70" as="geometry" />
        </mxCell>
        <mxCell id="FabTF3gNKdevGVVlGi9p-7" value="&lt;font style=&quot;font-size: 40px;&quot;&gt;4&lt;/font&gt;" style="ellipse;whiteSpace=wrap;html=1;aspect=fixed;" vertex="1" parent="1">
          <mxGeometry x="560" y="230" width="70" height="70" as="geometry" />
        </mxCell>
        <mxCell id="FabTF3gNKdevGVVlGi9p-8" value="&lt;font style=&quot;font-size: 40px;&quot;&gt;6&lt;/font&gt;" style="ellipse;whiteSpace=wrap;html=1;aspect=fixed;" vertex="1" parent="1">
          <mxGeometry x="470" y="380" width="70" height="70" as="geometry" />
        </mxCell>
        <mxCell id="FabTF3gNKdevGVVlGi9p-9" value="&lt;font style=&quot;font-size: 40px;&quot;&gt;5&lt;/font&gt;" style="ellipse;whiteSpace=wrap;html=1;aspect=fixed;" vertex="1" parent="1">
          <mxGeometry x="310" y="380" width="70" height="70" as="geometry" />
        </mxCell>
        <mxCell id="FabTF3gNKdevGVVlGi9p-10" value="&lt;font style=&quot;font-size: 40px;&quot;&gt;3&lt;/font&gt;" style="ellipse;whiteSpace=wrap;html=1;aspect=fixed;" vertex="1" parent="1">
          <mxGeometry x="460" y="80" width="70" height="70" as="geometry" />
        </mxCell>
        <mxCell id="FabTF3gNKdevGVVlGi9p-11" value="&lt;font style=&quot;font-size: 40px;&quot;&gt;2&lt;/font&gt;" style="ellipse;whiteSpace=wrap;html=1;aspect=fixed;" vertex="1" parent="1">
          <mxGeometry x="300" y="80" width="70" height="70" as="geometry" />
        </mxCell>
        <mxCell id="FabTF3gNKdevGVVlGi9p-12" value="" style="endArrow=none;html=1;rounded=0;entryX=0;entryY=0.5;entryDx=0;entryDy=0;exitX=0.5;exitY=0;exitDx=0;exitDy=0;" edge="1" parent="1" source="FabTF3gNKdevGVVlGi9p-8" target="FabTF3gNKdevGVVlGi9p-7">
          <mxGeometry width="50" height="50" relative="1" as="geometry">
            <mxPoint x="500" y="360" as="sourcePoint" />
            <mxPoint x="550" y="310" as="targetPoint" />
          </mxGeometry>
        </mxCell>
        <mxCell id="FabTF3gNKdevGVVlGi9p-13" value="" style="endArrow=none;html=1;rounded=0;entryX=0;entryY=0.5;entryDx=0;entryDy=0;exitX=0.5;exitY=1;exitDx=0;exitDy=0;" edge="1" parent="1" source="FabTF3gNKdevGVVlGi9p-10" target="FabTF3gNKdevGVVlGi9p-7">
          <mxGeometry width="50" height="50" relative="1" as="geometry">
            <mxPoint x="500" y="360" as="sourcePoint" />
            <mxPoint x="550" y="310" as="targetPoint" />
          </mxGeometry>
        </mxCell>
        <mxCell id="FabTF3gNKdevGVVlGi9p-14" value="" style="endArrow=none;html=1;rounded=0;entryX=0.5;entryY=1;entryDx=0;entryDy=0;exitX=0.5;exitY=1;exitDx=0;exitDy=0;" edge="1" parent="1" source="FabTF3gNKdevGVVlGi9p-11" target="FabTF3gNKdevGVVlGi9p-10">
          <mxGeometry width="50" height="50" relative="1" as="geometry">
            <mxPoint x="510" y="370" as="sourcePoint" />
            <mxPoint x="560" y="320" as="targetPoint" />
          </mxGeometry>
        </mxCell>
        <mxCell id="FabTF3gNKdevGVVlGi9p-15" value="" style="endArrow=none;html=1;rounded=0;entryX=0.5;entryY=0;entryDx=0;entryDy=0;exitX=0.5;exitY=0;exitDx=0;exitDy=0;" edge="1" parent="1" source="FabTF3gNKdevGVVlGi9p-9" target="FabTF3gNKdevGVVlGi9p-8">
          <mxGeometry width="50" height="50" relative="1" as="geometry">
            <mxPoint x="520" y="380" as="sourcePoint" />
            <mxPoint x="570" y="330" as="targetPoint" />
          </mxGeometry>
        </mxCell>
        <mxCell id="FabTF3gNKdevGVVlGi9p-16" value="" style="endArrow=none;html=1;rounded=0;entryX=0.5;entryY=0;entryDx=0;entryDy=0;exitX=1;exitY=0.5;exitDx=0;exitDy=0;" edge="1" parent="1" source="FabTF3gNKdevGVVlGi9p-2" target="FabTF3gNKdevGVVlGi9p-9">
          <mxGeometry width="50" height="50" relative="1" as="geometry">
            <mxPoint x="530" y="390" as="sourcePoint" />
            <mxPoint x="580" y="340" as="targetPoint" />
          </mxGeometry>
        </mxCell>
        <mxCell id="FabTF3gNKdevGVVlGi9p-17" value="" style="endArrow=none;html=1;rounded=0;entryX=0.5;entryY=1;entryDx=0;entryDy=0;exitX=1;exitY=0.5;exitDx=0;exitDy=0;" edge="1" parent="1" source="FabTF3gNKdevGVVlGi9p-2" target="FabTF3gNKdevGVVlGi9p-10">
          <mxGeometry width="50" height="50" relative="1" as="geometry">
            <mxPoint x="540" y="400" as="sourcePoint" />
            <mxPoint x="590" y="350" as="targetPoint" />
          </mxGeometry>
        </mxCell>
        <mxCell id="FabTF3gNKdevGVVlGi9p-18" value="" style="endArrow=none;html=1;rounded=0;entryX=1;entryY=0.5;entryDx=0;entryDy=0;exitX=0;exitY=0.5;exitDx=0;exitDy=0;" edge="1" parent="1" source="FabTF3gNKdevGVVlGi9p-7" target="FabTF3gNKdevGVVlGi9p-2">
          <mxGeometry width="50" height="50" relative="1" as="geometry">
            <mxPoint x="550" y="410" as="sourcePoint" />
            <mxPoint x="600" y="360" as="targetPoint" />
          </mxGeometry>
        </mxCell>
        <mxCell id="FabTF3gNKdevGVVlGi9p-19" value="" style="endArrow=none;html=1;rounded=0;exitX=0.5;exitY=0;exitDx=0;exitDy=0;entryX=0.5;entryY=1;entryDx=0;entryDy=0;" edge="1" parent="1" source="FabTF3gNKdevGVVlGi9p-8" target="FabTF3gNKdevGVVlGi9p-11">
          <mxGeometry width="50" height="50" relative="1" as="geometry">
            <mxPoint x="560" y="420" as="sourcePoint" />
            <mxPoint x="610" y="370" as="targetPoint" />
          </mxGeometry>
        </mxCell>
        <mxCell id="FabTF3gNKdevGVVlGi9p-20" value="" style="endArrow=none;html=1;rounded=0;entryX=0.5;entryY=1;entryDx=0;entryDy=0;exitX=0.5;exitY=0;exitDx=0;exitDy=0;" edge="1" parent="1" source="FabTF3gNKdevGVVlGi9p-9" target="FabTF3gNKdevGVVlGi9p-10">
          <mxGeometry width="50" height="50" relative="1" as="geometry">
            <mxPoint x="570" y="430" as="sourcePoint" />
            <mxPoint x="620" y="380" as="targetPoint" />
          </mxGeometry>
        </mxCell>
        <mxCell id="FabTF3gNKdevGVVlGi9p-32" value="6" style="text;html=1;strokeColor=none;fillColor=none;align=center;verticalAlign=middle;whiteSpace=wrap;rounded=0;fontSize=25;fontColor=#FF1D0D;" vertex="1" parent="1">
          <mxGeometry x="250" y="320" width="60" height="30" as="geometry" />
        </mxCell>
        <mxCell id="FabTF3gNKdevGVVlGi9p-33" value="4" style="text;html=1;strokeColor=none;fillColor=none;align=center;verticalAlign=middle;whiteSpace=wrap;rounded=0;fontSize=25;fontColor=#FF1D0D;" vertex="1" parent="1">
          <mxGeometry x="450" y="260" width="60" height="30" as="geometry" />
        </mxCell>
        <mxCell id="FabTF3gNKdevGVVlGi9p-34" value="15" style="text;html=1;strokeColor=none;fillColor=none;align=center;verticalAlign=middle;whiteSpace=wrap;rounded=0;fontSize=25;fontColor=#FF1D0D;" vertex="1" parent="1">
          <mxGeometry x="440" y="210" width="60" height="30" as="geometry" />
        </mxCell>
        <mxCell id="FabTF3gNKdevGVVlGi9p-35" value="12" style="text;html=1;strokeColor=none;fillColor=none;align=center;verticalAlign=middle;whiteSpace=wrap;rounded=0;fontSize=25;fontColor=#FF1D0D;" vertex="1" parent="1">
          <mxGeometry x="510" y="180" width="60" height="30" as="geometry" />
        </mxCell>
        <mxCell id="FabTF3gNKdevGVVlGi9p-36" value="8" style="text;html=1;strokeColor=none;fillColor=none;align=center;verticalAlign=middle;whiteSpace=wrap;rounded=0;fontSize=25;fontColor=#FF1D0D;" vertex="1" parent="1">
          <mxGeometry x="390" y="120" width="60" height="30" as="geometry" />
        </mxCell>
        <mxCell id="FabTF3gNKdevGVVlGi9p-37" value="2" style="text;html=1;strokeColor=none;fillColor=none;align=center;verticalAlign=middle;whiteSpace=wrap;rounded=0;fontSize=25;fontColor=#FF1D0D;" vertex="1" parent="1">
          <mxGeometry x="280" y="220" width="60" height="30" as="geometry" />
        </mxCell>
        <mxCell id="FabTF3gNKdevGVVlGi9p-40" value="7" style="text;html=1;strokeColor=none;fillColor=none;align=center;verticalAlign=middle;whiteSpace=wrap;rounded=0;fontSize=25;fontColor=#FF1D0D;" vertex="1" parent="1">
          <mxGeometry x="510" y="330" width="60" height="30" as="geometry" />
        </mxCell>
        <mxCell id="FabTF3gNKdevGVVlGi9p-41" value="3" style="text;html=1;strokeColor=none;fillColor=none;align=center;verticalAlign=middle;whiteSpace=wrap;rounded=0;fontSize=25;fontColor=#FF1D0D;" vertex="1" parent="1">
          <mxGeometry x="390" y="390" width="60" height="30" as="geometry" />
        </mxCell>
        <mxCell id="FabTF3gNKdevGVVlGi9p-43" value="9" style="text;html=1;strokeColor=none;fillColor=none;align=center;verticalAlign=middle;whiteSpace=wrap;rounded=0;fontSize=25;fontColor=#FF0000;" vertex="1" parent="1">
          <mxGeometry x="420" y="310" width="60" height="30" as="geometry" />
        </mxCell>
        <mxCell id="FabTF3gNKdevGVVlGi9p-69" value="&lt;font style=&quot;font-size: 40px;&quot;&gt;1&lt;/font&gt;" style="ellipse;whiteSpace=wrap;html=1;aspect=fixed;" vertex="1" parent="1">
          <mxGeometry x="202.5" y="630" width="70" height="70" as="geometry" />
        </mxCell>
        <mxCell id="FabTF3gNKdevGVVlGi9p-70" value="&lt;font style=&quot;font-size: 40px;&quot;&gt;4&lt;/font&gt;" style="ellipse;whiteSpace=wrap;html=1;aspect=fixed;" vertex="1" parent="1">
          <mxGeometry x="562.5" y="630" width="70" height="70" as="geometry" />
        </mxCell>
        <mxCell id="FabTF3gNKdevGVVlGi9p-71" value="&lt;font style=&quot;font-size: 40px;&quot;&gt;6&lt;/font&gt;" style="ellipse;whiteSpace=wrap;html=1;aspect=fixed;" vertex="1" parent="1">
          <mxGeometry x="472.5" y="780" width="70" height="70" as="geometry" />
        </mxCell>
        <mxCell id="FabTF3gNKdevGVVlGi9p-72" value="&lt;font style=&quot;font-size: 40px;&quot;&gt;5&lt;/font&gt;" style="ellipse;whiteSpace=wrap;html=1;aspect=fixed;" vertex="1" parent="1">
          <mxGeometry x="312.5" y="780" width="70" height="70" as="geometry" />
        </mxCell>
        <mxCell id="FabTF3gNKdevGVVlGi9p-73" value="&lt;font style=&quot;font-size: 40px;&quot;&gt;3&lt;/font&gt;" style="ellipse;whiteSpace=wrap;html=1;aspect=fixed;" vertex="1" parent="1">
          <mxGeometry x="462.5" y="480" width="70" height="70" as="geometry" />
        </mxCell>
        <mxCell id="FabTF3gNKdevGVVlGi9p-74" value="&lt;font style=&quot;font-size: 40px;&quot;&gt;2&lt;/font&gt;" style="ellipse;whiteSpace=wrap;html=1;aspect=fixed;" vertex="1" parent="1">
          <mxGeometry x="302.5" y="480" width="70" height="70" as="geometry" />
        </mxCell>
        <mxCell id="FabTF3gNKdevGVVlGi9p-75" value="" style="endArrow=none;html=1;rounded=0;entryX=0;entryY=0.5;entryDx=0;entryDy=0;exitX=0.5;exitY=0;exitDx=0;exitDy=0;dashed=1;" edge="1" parent="1" source="FabTF3gNKdevGVVlGi9p-71" target="FabTF3gNKdevGVVlGi9p-70">
          <mxGeometry width="50" height="50" relative="1" as="geometry">
            <mxPoint x="502.5" y="760" as="sourcePoint" />
            <mxPoint x="552.5" y="710" as="targetPoint" />
          </mxGeometry>
        </mxCell>
        <mxCell id="FabTF3gNKdevGVVlGi9p-76" value="" style="endArrow=none;html=1;rounded=0;entryX=0;entryY=0.5;entryDx=0;entryDy=0;exitX=0.5;exitY=1;exitDx=0;exitDy=0;dashed=1;" edge="1" parent="1" source="FabTF3gNKdevGVVlGi9p-73" target="FabTF3gNKdevGVVlGi9p-70">
          <mxGeometry width="50" height="50" relative="1" as="geometry">
            <mxPoint x="502.5" y="760" as="sourcePoint" />
            <mxPoint x="552.5" y="710" as="targetPoint" />
          </mxGeometry>
        </mxCell>
        <mxCell id="FabTF3gNKdevGVVlGi9p-77" value="" style="endArrow=none;html=1;rounded=0;entryX=0.5;entryY=1;entryDx=0;entryDy=0;exitX=0.5;exitY=1;exitDx=0;exitDy=0;strokeColor=default;dashed=1;" edge="1" parent="1" source="FabTF3gNKdevGVVlGi9p-74" target="FabTF3gNKdevGVVlGi9p-73">
          <mxGeometry width="50" height="50" relative="1" as="geometry">
            <mxPoint x="512.5" y="770" as="sourcePoint" />
            <mxPoint x="562.5" y="720" as="targetPoint" />
          </mxGeometry>
        </mxCell>
        <mxCell id="FabTF3gNKdevGVVlGi9p-78" value="" style="endArrow=none;html=1;rounded=0;entryX=0.5;entryY=0;entryDx=0;entryDy=0;exitX=0.5;exitY=0;exitDx=0;exitDy=0;dashed=1;" edge="1" parent="1" source="FabTF3gNKdevGVVlGi9p-72" target="FabTF3gNKdevGVVlGi9p-71">
          <mxGeometry width="50" height="50" relative="1" as="geometry">
            <mxPoint x="522.5" y="780" as="sourcePoint" />
            <mxPoint x="572.5" y="730" as="targetPoint" />
          </mxGeometry>
        </mxCell>
        <mxCell id="FabTF3gNKdevGVVlGi9p-79" value="" style="endArrow=none;html=1;rounded=0;entryX=0.5;entryY=0;entryDx=0;entryDy=0;exitX=1;exitY=0.5;exitDx=0;exitDy=0;dashed=1;" edge="1" parent="1" source="FabTF3gNKdevGVVlGi9p-69" target="FabTF3gNKdevGVVlGi9p-72">
          <mxGeometry width="50" height="50" relative="1" as="geometry">
            <mxPoint x="532.5" y="790" as="sourcePoint" />
            <mxPoint x="582.5" y="740" as="targetPoint" />
          </mxGeometry>
        </mxCell>
        <mxCell id="FabTF3gNKdevGVVlGi9p-80" value="" style="endArrow=none;html=1;rounded=0;entryX=0.5;entryY=1;entryDx=0;entryDy=0;exitX=1;exitY=0.5;exitDx=0;exitDy=0;" edge="1" parent="1" source="FabTF3gNKdevGVVlGi9p-69" target="FabTF3gNKdevGVVlGi9p-73">
          <mxGeometry width="50" height="50" relative="1" as="geometry">
            <mxPoint x="542.5" y="800" as="sourcePoint" />
            <mxPoint x="592.5" y="750" as="targetPoint" />
          </mxGeometry>
        </mxCell>
        <mxCell id="FabTF3gNKdevGVVlGi9p-81" value="" style="endArrow=none;html=1;rounded=0;entryX=1;entryY=0.5;entryDx=0;entryDy=0;exitX=0;exitY=0.5;exitDx=0;exitDy=0;dashed=1;" edge="1" parent="1" source="FabTF3gNKdevGVVlGi9p-70" target="FabTF3gNKdevGVVlGi9p-69">
          <mxGeometry width="50" height="50" relative="1" as="geometry">
            <mxPoint x="552.5" y="810" as="sourcePoint" />
            <mxPoint x="602.5" y="760" as="targetPoint" />
          </mxGeometry>
        </mxCell>
        <mxCell id="FabTF3gNKdevGVVlGi9p-82" value="" style="endArrow=none;html=1;rounded=0;exitX=0.5;exitY=0;exitDx=0;exitDy=0;entryX=0.5;entryY=1;entryDx=0;entryDy=0;dashed=1;" edge="1" parent="1" source="FabTF3gNKdevGVVlGi9p-71" target="FabTF3gNKdevGVVlGi9p-74">
          <mxGeometry width="50" height="50" relative="1" as="geometry">
            <mxPoint x="562.5" y="820" as="sourcePoint" />
            <mxPoint x="612.5" y="770" as="targetPoint" />
          </mxGeometry>
        </mxCell>
        <mxCell id="FabTF3gNKdevGVVlGi9p-83" value="" style="endArrow=none;html=1;rounded=0;entryX=0.5;entryY=1;entryDx=0;entryDy=0;exitX=0.5;exitY=0;exitDx=0;exitDy=0;dashed=1;" edge="1" parent="1" source="FabTF3gNKdevGVVlGi9p-72" target="FabTF3gNKdevGVVlGi9p-73">
          <mxGeometry width="50" height="50" relative="1" as="geometry">
            <mxPoint x="572.5" y="830" as="sourcePoint" />
            <mxPoint x="622.5" y="780" as="targetPoint" />
          </mxGeometry>
        </mxCell>
        <mxCell id="FabTF3gNKdevGVVlGi9p-84" value="6" style="text;html=1;strokeColor=none;fillColor=none;align=center;verticalAlign=middle;whiteSpace=wrap;rounded=0;fontSize=25;fontColor=#FF1D0D;" vertex="1" parent="1">
          <mxGeometry x="252.5" y="720" width="60" height="30" as="geometry" />
        </mxCell>
        <mxCell id="FabTF3gNKdevGVVlGi9p-85" value="4" style="text;html=1;strokeColor=none;fillColor=none;align=center;verticalAlign=middle;whiteSpace=wrap;rounded=0;fontSize=25;fontColor=#FF1D0D;" vertex="1" parent="1">
          <mxGeometry x="452.5" y="660" width="60" height="30" as="geometry" />
        </mxCell>
        <mxCell id="FabTF3gNKdevGVVlGi9p-86" value="15" style="text;html=1;strokeColor=none;fillColor=none;align=center;verticalAlign=middle;whiteSpace=wrap;rounded=0;fontSize=25;fontColor=#FF1D0D;" vertex="1" parent="1">
          <mxGeometry x="442.5" y="610" width="60" height="30" as="geometry" />
        </mxCell>
        <mxCell id="FabTF3gNKdevGVVlGi9p-87" value="12" style="text;html=1;strokeColor=none;fillColor=none;align=center;verticalAlign=middle;whiteSpace=wrap;rounded=0;fontSize=25;fontColor=#FF1D0D;" vertex="1" parent="1">
          <mxGeometry x="512.5" y="580" width="60" height="30" as="geometry" />
        </mxCell>
        <mxCell id="FabTF3gNKdevGVVlGi9p-88" value="8" style="text;html=1;strokeColor=none;fillColor=none;align=center;verticalAlign=middle;whiteSpace=wrap;rounded=0;fontSize=25;fontColor=#FF1D0D;" vertex="1" parent="1">
          <mxGeometry x="392.5" y="520" width="60" height="30" as="geometry" />
        </mxCell>
        <mxCell id="FabTF3gNKdevGVVlGi9p-89" value="2" style="text;html=1;strokeColor=none;fillColor=none;align=center;verticalAlign=middle;whiteSpace=wrap;rounded=0;fontSize=25;fontColor=#FF1D0D;" vertex="1" parent="1">
          <mxGeometry x="282.5" y="620" width="60" height="30" as="geometry" />
        </mxCell>
        <mxCell id="FabTF3gNKdevGVVlGi9p-90" value="7" style="text;html=1;strokeColor=none;fillColor=none;align=center;verticalAlign=middle;whiteSpace=wrap;rounded=0;fontSize=25;fontColor=#FF1D0D;" vertex="1" parent="1">
          <mxGeometry x="512.5" y="730" width="60" height="30" as="geometry" />
        </mxCell>
        <mxCell id="FabTF3gNKdevGVVlGi9p-91" value="3" style="text;html=1;strokeColor=none;fillColor=none;align=center;verticalAlign=middle;whiteSpace=wrap;rounded=0;fontSize=25;fontColor=#FF1D0D;" vertex="1" parent="1">
          <mxGeometry x="392.5" y="790" width="60" height="30" as="geometry" />
        </mxCell>
        <mxCell id="FabTF3gNKdevGVVlGi9p-92" value="9" style="text;html=1;strokeColor=none;fillColor=none;align=center;verticalAlign=middle;whiteSpace=wrap;rounded=0;fontSize=25;fontColor=#FF0000;" vertex="1" parent="1">
          <mxGeometry x="422.5" y="710" width="60" height="30" as="geometry" />
        </mxCell>
        <mxCell id="FabTF3gNKdevGVVlGi9p-116" value="&lt;font style=&quot;font-size: 40px;&quot;&gt;1&lt;/font&gt;" style="ellipse;whiteSpace=wrap;html=1;aspect=fixed;" vertex="1" parent="1">
          <mxGeometry x="207.5" y="1020" width="70" height="70" as="geometry" />
        </mxCell>
        <mxCell id="FabTF3gNKdevGVVlGi9p-117" value="&lt;font style=&quot;font-size: 40px;&quot;&gt;4&lt;/font&gt;" style="ellipse;whiteSpace=wrap;html=1;aspect=fixed;" vertex="1" parent="1">
          <mxGeometry x="567.5" y="1020" width="70" height="70" as="geometry" />
        </mxCell>
        <mxCell id="FabTF3gNKdevGVVlGi9p-118" value="&lt;font style=&quot;font-size: 40px;&quot;&gt;6&lt;/font&gt;" style="ellipse;whiteSpace=wrap;html=1;aspect=fixed;" vertex="1" parent="1">
          <mxGeometry x="477.5" y="1170" width="70" height="70" as="geometry" />
        </mxCell>
        <mxCell id="FabTF3gNKdevGVVlGi9p-119" value="&lt;font style=&quot;font-size: 40px;&quot;&gt;5&lt;/font&gt;" style="ellipse;whiteSpace=wrap;html=1;aspect=fixed;" vertex="1" parent="1">
          <mxGeometry x="317.5" y="1170" width="70" height="70" as="geometry" />
        </mxCell>
        <mxCell id="FabTF3gNKdevGVVlGi9p-120" value="&lt;font style=&quot;font-size: 40px;&quot;&gt;3&lt;/font&gt;" style="ellipse;whiteSpace=wrap;html=1;aspect=fixed;" vertex="1" parent="1">
          <mxGeometry x="467.5" y="870" width="70" height="70" as="geometry" />
        </mxCell>
        <mxCell id="FabTF3gNKdevGVVlGi9p-121" value="&lt;font style=&quot;font-size: 40px;&quot;&gt;2&lt;/font&gt;" style="ellipse;whiteSpace=wrap;html=1;aspect=fixed;" vertex="1" parent="1">
          <mxGeometry x="307.5" y="870" width="70" height="70" as="geometry" />
        </mxCell>
        <mxCell id="FabTF3gNKdevGVVlGi9p-124" value="" style="endArrow=none;html=1;rounded=0;entryX=0.5;entryY=1;entryDx=0;entryDy=0;exitX=0.5;exitY=1;exitDx=0;exitDy=0;strokeColor=default;" edge="1" parent="1" source="FabTF3gNKdevGVVlGi9p-121" target="FabTF3gNKdevGVVlGi9p-120">
          <mxGeometry width="50" height="50" relative="1" as="geometry">
            <mxPoint x="517.5" y="1160" as="sourcePoint" />
            <mxPoint x="567.5" y="1110" as="targetPoint" />
          </mxGeometry>
        </mxCell>
        <mxCell id="FabTF3gNKdevGVVlGi9p-125" value="" style="endArrow=none;html=1;rounded=0;entryX=0.5;entryY=0;entryDx=0;entryDy=0;exitX=0.5;exitY=0;exitDx=0;exitDy=0;" edge="1" parent="1" source="FabTF3gNKdevGVVlGi9p-119" target="FabTF3gNKdevGVVlGi9p-118">
          <mxGeometry width="50" height="50" relative="1" as="geometry">
            <mxPoint x="527.5" y="1170" as="sourcePoint" />
            <mxPoint x="577.5" y="1120" as="targetPoint" />
          </mxGeometry>
        </mxCell>
        <mxCell id="FabTF3gNKdevGVVlGi9p-126" value="" style="endArrow=none;html=1;rounded=0;entryX=0.5;entryY=0;entryDx=0;entryDy=0;exitX=1;exitY=0.5;exitDx=0;exitDy=0;" edge="1" parent="1" source="FabTF3gNKdevGVVlGi9p-116" target="FabTF3gNKdevGVVlGi9p-119">
          <mxGeometry width="50" height="50" relative="1" as="geometry">
            <mxPoint x="537.5" y="1180" as="sourcePoint" />
            <mxPoint x="587.5" y="1130" as="targetPoint" />
          </mxGeometry>
        </mxCell>
        <mxCell id="FabTF3gNKdevGVVlGi9p-127" value="" style="endArrow=none;html=1;rounded=0;entryX=0.5;entryY=1;entryDx=0;entryDy=0;exitX=1;exitY=0.5;exitDx=0;exitDy=0;" edge="1" parent="1" source="FabTF3gNKdevGVVlGi9p-116" target="FabTF3gNKdevGVVlGi9p-120">
          <mxGeometry width="50" height="50" relative="1" as="geometry">
            <mxPoint x="547.5" y="1190" as="sourcePoint" />
            <mxPoint x="597.5" y="1140" as="targetPoint" />
          </mxGeometry>
        </mxCell>
        <mxCell id="FabTF3gNKdevGVVlGi9p-128" value="" style="endArrow=none;html=1;rounded=0;entryX=1;entryY=0.5;entryDx=0;entryDy=0;exitX=0;exitY=0.5;exitDx=0;exitDy=0;" edge="1" parent="1" source="FabTF3gNKdevGVVlGi9p-117" target="FabTF3gNKdevGVVlGi9p-116">
          <mxGeometry width="50" height="50" relative="1" as="geometry">
            <mxPoint x="557.5" y="1200" as="sourcePoint" />
            <mxPoint x="607.5" y="1150" as="targetPoint" />
          </mxGeometry>
        </mxCell>
        <mxCell id="FabTF3gNKdevGVVlGi9p-131" value="6" style="text;html=1;strokeColor=none;fillColor=none;align=center;verticalAlign=middle;whiteSpace=wrap;rounded=0;fontSize=25;fontColor=#FF1D0D;" vertex="1" parent="1">
          <mxGeometry x="257.5" y="1110" width="60" height="30" as="geometry" />
        </mxCell>
        <mxCell id="FabTF3gNKdevGVVlGi9p-132" value="4" style="text;html=1;strokeColor=none;fillColor=none;align=center;verticalAlign=middle;whiteSpace=wrap;rounded=0;fontSize=25;fontColor=#FF1D0D;" vertex="1" parent="1">
          <mxGeometry x="457.5" y="1050" width="60" height="30" as="geometry" />
        </mxCell>
        <mxCell id="FabTF3gNKdevGVVlGi9p-133" value="15" style="text;html=1;strokeColor=none;fillColor=none;align=center;verticalAlign=middle;whiteSpace=wrap;rounded=0;fontSize=25;fontColor=#FF1D0D;" vertex="1" parent="1">
          <mxGeometry x="447.5" y="1000" width="60" height="30" as="geometry" />
        </mxCell>
        <mxCell id="FabTF3gNKdevGVVlGi9p-134" value="12" style="text;html=1;strokeColor=none;fillColor=none;align=center;verticalAlign=middle;whiteSpace=wrap;rounded=0;fontSize=25;fontColor=#FF1D0D;" vertex="1" parent="1">
          <mxGeometry x="517.5" y="970" width="60" height="30" as="geometry" />
        </mxCell>
        <mxCell id="FabTF3gNKdevGVVlGi9p-135" value="8" style="text;html=1;strokeColor=none;fillColor=none;align=center;verticalAlign=middle;whiteSpace=wrap;rounded=0;fontSize=25;fontColor=#FF1D0D;" vertex="1" parent="1">
          <mxGeometry x="397.5" y="910" width="60" height="30" as="geometry" />
        </mxCell>
        <mxCell id="FabTF3gNKdevGVVlGi9p-136" value="2" style="text;html=1;strokeColor=none;fillColor=none;align=center;verticalAlign=middle;whiteSpace=wrap;rounded=0;fontSize=25;fontColor=#FF1D0D;" vertex="1" parent="1">
          <mxGeometry x="287.5" y="1010" width="60" height="30" as="geometry" />
        </mxCell>
        <mxCell id="FabTF3gNKdevGVVlGi9p-137" value="7" style="text;html=1;strokeColor=none;fillColor=none;align=center;verticalAlign=middle;whiteSpace=wrap;rounded=0;fontSize=25;fontColor=#FF1D0D;" vertex="1" parent="1">
          <mxGeometry x="517.5" y="1120" width="60" height="30" as="geometry" />
        </mxCell>
        <mxCell id="FabTF3gNKdevGVVlGi9p-138" value="3" style="text;html=1;strokeColor=none;fillColor=none;align=center;verticalAlign=middle;whiteSpace=wrap;rounded=0;fontSize=25;fontColor=#FF1D0D;" vertex="1" parent="1">
          <mxGeometry x="397.5" y="1180" width="60" height="30" as="geometry" />
        </mxCell>
        <mxCell id="FabTF3gNKdevGVVlGi9p-139" value="9" style="text;html=1;strokeColor=none;fillColor=none;align=center;verticalAlign=middle;whiteSpace=wrap;rounded=0;fontSize=25;fontColor=#FF0000;" vertex="1" parent="1">
          <mxGeometry x="427.5" y="1100" width="60" height="30" as="geometry" />
        </mxCell>
      </root>
    </mxGraphModel>
  </diagram>
</mxfile>
